<?xml version="1.0" standalone="no"?>
<!DOCTYPE svg PUBLIC "-//W3C//DTD SVG 20010904//EN"
 "http://www.w3.org/TR/2001/REC-SVG-20010904/DTD/svg10.dtd">
<svg version="1.0" xmlns="http://www.w3.org/2000/svg"
 width="1001.000000pt" height="1001.000000pt" viewBox="0 0 1001.000000 1001.000000"
 preserveAspectRatio="xMidYMid meet">

<g transform="translate(0.000000,1001.000000) scale(0.100000,-0.100000)"
fill="#000000" stroke="none">
<path d="M0 5005 l0 -5005 5005 0 5005 0 0 5005 0 5005 -5005 0 -5005 0 0
-5005z m2309 620 c174 -319 338 -618 363 -665 l46 -85 -182 -333 c-101 -184
-186 -334 -191 -334 -6 1 -1077 1948 -1092 1988 -4 12 52 14 367 12 l372 -3
317 -580z m2165 498 c-27 -48 -323 -591 -660 -1208 l-613 -1120 -370 -3 c-204
-1 -371 1 -371 4 0 4 296 548 658 1210 l657 1204 373 0 373 0 -47 -87z m1396
83 c0 -2 -145 -268 -322 -592 -176 -324 -323 -595 -325 -604 -2 -8 143 -283
322 -610 l325 -595 -397 -3 c-218 -1 -400 1 -404 5 -7 8 -648 1180 -652 1192
-1 4 146 278 327 609 l328 602 399 0 c219 0 399 -2 399 -4z m1060 -544 l0
-549 193 -354 193 -354 202 -3 202 -2 0 905 0 905 345 0 345 0 0 -1210 0
-1210 -750 0 -750 0 -14 23 c-8 12 -158 287 -335 610 l-321 588 0 599 0 600
345 0 345 0 0 -548z m-195 -2083 c52 -27 99 -83 111 -131 6 -28 6 -28 -42 -28
-44 1 -51 4 -69 33 -26 41 -78 67 -135 67 -99 0 -165 -75 -157 -178 7 -92 65
-143 162 -143 66 0 116 26 135 71 11 28 16 30 61 30 54 0 56 -4 34 -58 -36
-85 -118 -132 -231 -132 -84 0 -125 12 -178 53 -108 85 -115 279 -13 378 50
49 111 69 202 66 53 -2 82 -9 120 -28z m547 3 c91 -40 137 -115 138 -222 0
-157 -100 -250 -269 -250 -164 1 -261 93 -261 248 0 119 54 196 167 238 53 20
165 13 225 -14z m523 7 c57 -14 118 -67 140 -121 22 -53 23 -169 2 -218 -21
-49 -59 -88 -109 -110 -37 -17 -67 -20 -200 -20 l-158 0 0 240 0 240 141 0
c77 0 160 -5 184 -11z m615 -29 l0 -39 -147 -3 -148 -3 -3 -57 -3 -58 141 0
140 0 0 -40 0 -40 -140 0 -140 0 0 -60 0 -60 150 0 150 0 0 -40 0 -40 -200 0
-200 0 0 240 0 240 200 0 200 0 0 -40z"/>
<path d="M7072 3503 c-55 -27 -77 -68 -77 -145 0 -52 5 -73 21 -95 34 -45 78
-66 140 -65 99 1 155 53 161 149 7 105 -58 173 -162 173 -27 0 -65 -8 -83 -17z"/>
<path d="M7580 3355 l0 -157 93 4 c106 6 139 18 168 65 18 28 21 46 17 104 -3
62 -7 73 -36 102 -32 31 -34 32 -137 35 l-105 4 0 -157z"/>
</g>
</svg>
