<svg width="172" height="57" viewBox="0 0 172 57" fill="none" xmlns="http://www.w3.org/2000/svg">
<g clip-path="url(#clip0_35_18)">
<path d="M0 0L43.2095 45.5828L86.5073 0H68.9033L43.2537 26.8535L17.6924 0H0Z" fill="white"/>
<path d="M97.7313 0L76.6228 22.7905L96.5382 45.9357H113.875L92.0938 22.9679L112.631 0H97.7313Z" fill="#C462EE"/>
<path d="M120.188 0H132.902V33.0375H158.241V0H171.844V45.9357H127.567L120.188 38.2505V0Z" fill="white"/>
<path d="M131.722 51.3125C133.425 51.3125 134.278 51.9897 134.278 53.344H132.745C132.745 52.8019 132.405 52.5317 131.724 52.5317H129.679C128.998 52.5317 128.658 52.8019 128.658 53.344V54.9685C128.658 55.5106 128.998 55.7808 129.679 55.7808H131.724C132.405 55.7808 132.745 55.5106 132.745 54.9685H134.278C134.278 56.3228 133.427 57 131.722 57H129.678C127.975 57 127.122 56.3228 127.122 54.9685V53.344C127.122 51.9897 127.973 51.3125 129.678 51.3125H131.722Z" fill="white"/>
<path d="M139.697 54.9685V53.344C139.697 51.9897 140.548 51.3125 142.253 51.3125H144.297C146 51.3125 146.853 51.9897 146.853 53.344V54.9685C146.853 56.3228 146.002 57 144.297 57H142.253C140.55 57 139.697 56.3228 139.697 54.9685ZM141.23 53.344V54.9685C141.23 55.5106 141.569 55.7808 142.251 55.7808H144.296C144.977 55.7808 145.317 55.5106 145.317 54.9685V53.344C145.317 52.8019 144.977 52.5317 144.296 52.5317H142.251C141.569 52.5317 141.23 52.8019 141.23 53.344Z" fill="white"/>
<path d="M159.425 53.344V54.9685C159.425 56.3228 158.574 57 156.869 57H152.27V51.3125H156.869C158.572 51.3125 159.425 51.9897 159.425 53.344ZM157.892 54.9685V53.344C157.892 52.8019 157.552 52.5317 156.871 52.5317H153.805V55.7825H156.871C157.552 55.7825 157.892 55.5123 157.892 54.9702V54.9685Z" fill="white"/>
<path d="M172 51.3125V52.5317H166.378V53.5466H171.488V54.7659H166.378V55.7808H172V57H164.845V51.3125H172Z" fill="white"/>
</g>
<defs>
<clipPath id="clip0_35_18">
<rect width="172" height="57" fill="white"/>
</clipPath>
</defs>
</svg>
